# xmcd CD database generated by RipIT
#
# Track frame offsets:
# 150
# 19868
# 40844
# 60076
# 80758
# 106445
# 121839
# 137302
# 156525
# 176458
#
# Disc length: 2567 seconds
#
# Revision: 0
# Processed by: cddbd v1.5.2PL0 Copyright (c) Steve Scherf et al.
# Submitted via: RipIT 3.7.0 www.suwald.com/ripit/ripit.html on 2009-12-17 at 18:41
#
DISCID=770a050a
DTITLE=First Call - The Definitive Collection
DYEAR=2007
DGENRE=jazz
TTITLE0=Someday
TTITLE1=Freedom
TTITLE2=Undivided
TTITLE3=Evidence of Love
TTITLE4=O Sifuni Mungu (All Creatures of Our God and King)
TTITLE5=Somethin' Takes Over
TTITLE6=God Is Greater
TTITLE7=Sweet Love
TTITLE8=Legacy
TTITLE9=The Reason We Sing
EXTD=
EXTT0=
EXTT1=
EXTT2=
EXTT3=
EXTT4=
EXTT5=
EXTT6=
EXTT7=
EXTT8=
EXTT9=
PLAYORDER=
